<svg id="visual" viewBox="0 0 960 540" width="960" height="540" xmlns="http://www.w3.org/2000/svg" xmlns:xlink="http://www.w3.org/1999/xlink" version="1.1"><rect x="0" y="0" width="960" height="540" fill="#002233"></rect><path d="M0 72L12.3 75.2C24.7 78.3 49.3 84.7 74 82C98.7 79.3 123.3 67.7 148 67.3C172.7 67 197.3 78 221.8 80.5C246.3 83 270.7 77 295.2 74.5C319.7 72 344.3 73 369 78.2C393.7 83.3 418.3 92.7 443 95.7C467.7 98.7 492.3 95.3 517 90.5C541.7 85.7 566.3 79.3 591 72.3C615.7 65.3 640.3 57.7 664.8 58.3C689.3 59 713.7 68 738.2 72.3C762.7 76.7 787.3 76.3 812 80.8C836.7 85.3 861.3 94.7 886 96.2C910.7 97.7 935.3 91.3 947.7 88.2L960 85L960 0L947.7 0C935.3 0 910.7 0 886 0C861.3 0 836.7 0 812 0C787.3 0 762.7 0 738.2 0C713.7 0 689.3 0 664.8 0C640.3 0 615.7 0 591 0C566.3 0 541.7 0 517 0C492.3 0 467.7 0 443 0C418.3 0 393.7 0 369 0C344.3 0 319.7 0 295.2 0C270.7 0 246.3 0 221.8 0C197.3 0 172.7 0 148 0C123.3 0 98.7 0 74 0C49.3 0 24.7 0 12.3 0L0 0Z" fill="#0066FF" stroke-linecap="round" stroke-linejoin="miter"></path></svg>